# ProBuilder 5.0.7
# https://unity3d.com/unity/features/worldbuilding/probuilder
# 1/9/2024 3:08:27 PM

mtllib ./WindowWall.mtl
o WindowWall

g Cube
v 0 0 0
v 0 0 -1
v 0 1.074711 0
v 0 1.074711 -1
v 1 0 -1
v 1 0 0
v 1 1.074711 -1
v 1 1.074711 0
v 1 3.5 -1
v 1 3.5 0
v 0 3.5 0
v 0 3.5 -1
v 1 4.25 -1
v 1 4.25 0
v 0 4.25 0
v 0 4.25 -1
v 1 4.75 -1
v 1 4.75 0
v 0 4.75 0
v 0 4.75 -1
v 0.8470241 0 0
v 0.8470241 1.074711 0
v 0.8470241 0 -1
v 0.8470241 1.074711 -1
v 0.8470241 4.75 0
v 0.8470241 4.75 -1
v 0.8470241 3.5 0
v 0.8470241 3.5 -1
v 0.8470241 4.25 0
v 0.8470241 4.25 -1
v 0.2005037 0 0
v 0.2005037 1.074711 0
v 0.2005037 1.074711 -1
v 0.2005037 0 -1
v 0.2005037 4.75 -1
v 0.2005037 4.75 0
v 0.2005037 3.5 0
v 0.2005037 3.5 -1
v 0.2005037 4.25 0
v 0.2005037 4.25 -1

vt 0 0
vt -1 0
vt 0 1.074711
vt -1 1.074711
vt 1 0
vt 1 1.074711
vt 1 3.5
vt 0 3.5
vt -1 3.5
vt 1 4.25
vt 0 4.25
vt -1 4.25
vt 1 4.75
vt 0 4.75
vt -1 4.75
vt 0.8470241 0
vt 0.8470241 1.074711
vt -0.8470241 0
vt -0.8470241 1.074711
vt -0.8470241 -1
vt -1 -1
vt 1 -1
vt 0.8470241 -1
vt 0.8470241 3.5
vt -0.8470241 3.5
vt 0.8470241 4.25
vt -0.8470241 4.25
vt 0.8470241 4.75
vt -0.8470241 4.75
vt 0.2005037 0
vt 0.2005037 1.074711
vt -0.2005037 1.074711
vt -0.2005037 0
vt 0 -1
vt -0.2005037 -1
vt 0.2005037 -1
vt 0.2005037 3.5
vt -0.2005037 3.5
vt 0.2005037 4.25
vt -0.2005037 4.25
vt 0.2005037 4.75
vt -0.2005037 4.75

vn -1 0 0
vn 1 0 0
vn 0 0 1
vn 0 0 -1
vn 0 1 0
vn 0 -1 0

usemtl Void
f 3/3/1 4/4/1 2/2/1 1/1/1
f 7/6/2 8/3/2 6/1/2 5/5/2
f 9/7/2 10/8/2 8/3/2 7/6/2
f 11/8/1 12/9/1 4/4/1 3/3/1
f 13/10/2 14/11/2 10/8/2 9/7/2
f 15/11/1 16/12/1 12/9/1 11/8/1
f 17/13/2 18/14/2 14/11/2 13/10/2
f 19/14/1 20/15/1 16/12/1 15/11/1
f 8/6/3 22/17/3 21/16/3 6/5/3
f 23/18/4 24/19/4 7/4/4 5/2/4
f 25/18/5 18/2/5 17/21/5 26/20/5
f 5/22/6 6/5/6 21/16/6 23/23/6
f 10/7/3 27/24/3 22/17/3 8/6/3
f 24/19/4 28/25/4 9/9/4 7/4/4
f 14/10/3 29/26/3 27/24/3 10/7/3
f 28/25/4 30/27/4 13/12/4 9/9/4
f 18/13/3 25/28/3 29/26/3 14/10/3
f 30/27/4 26/29/4 17/15/4 13/12/4
f 22/17/3 32/31/3 31/30/3 21/16/3
f 32/31/3 3/3/3 1/1/3 31/30/3
f 23/18/4 34/33/4 33/32/4 24/19/4
f 34/33/4 2/1/4 4/3/4 33/32/4
f 19/1/5 36/33/5 35/35/5 20/34/5
f 36/33/5 25/18/5 26/20/5 35/35/5
f 2/34/6 34/36/6 31/30/6 1/1/6
f 34/36/6 23/23/6 21/16/6 31/30/6
f 37/37/3 11/8/3 3/3/3 32/31/3
f 33/32/4 4/3/4 12/8/4 38/38/4
f 29/26/3 39/39/3 37/37/3 27/24/3
f 39/39/3 15/11/3 11/8/3 37/37/3
f 38/38/4 40/40/4 30/27/4 28/25/4
f 12/8/4 16/11/4 40/40/4 38/38/4
f 25/28/3 36/41/3 39/39/3 29/26/3
f 36/41/3 19/14/3 15/11/3 39/39/3
f 40/40/4 35/42/4 26/29/4 30/27/4
f 16/11/4 20/14/4 35/42/4 40/40/4
f 28/9/1 24/4/1 22/3/1 27/8/1
f 38/36/6 28/23/6 27/16/6 37/30/6
f 33/6/2 38/7/2 37/8/2 32/3/2
f 24/20/5 33/35/5 32/33/5 22/18/5

